<svg width="21" height="22" viewBox="0 0 21 22" fill="none" xmlns="http://www.w3.org/2000/svg">
<path d="M1.72473 14.4351L3.4637 13.4312C3.5579 13.3768 3.66843 13.3579 3.77534 13.3779L7.19689 14.0183C7.47808 14.0709 7.73765 13.8545 7.73637 13.5684L7.72305 10.5705C7.72269 10.489 7.74417 10.409 7.78525 10.3386L9.51195 7.38246C9.60182 7.2286 9.59376 7.03649 9.49134 6.8907L6.58405 2.75246M16.5915 4.60551C11.5793 7.0123 14.3131 10.2019 15.2245 10.6576C16.9352 11.5127 19.314 11.5689 19.314 11.5689C19.3215 11.4179 19.3253 11.266 19.3253 11.1132C19.3253 6.08012 15.2452 2 10.2121 2C5.179 2 1.09888 6.08012 1.09888 11.1132C1.09888 16.1463 5.179 20.2264 10.2121 20.2264C10.3649 20.2264 10.5168 20.2227 10.6677 20.2152M14.548 20.1715L11.662 12.5631L19.2704 15.4491L15.8966 16.7977L14.548 20.1715Z" stroke="#D3352A" stroke-width="2.12642" stroke-linecap="round" stroke-linejoin="round"/>
</svg>