<?xml version="1.0" encoding="utf-8"?>
<!-- Generator: Adobe Illustrator 27.0.0, SVG Export Plug-In . SVG Version: 6.00 Build 0)  -->
<svg version="1.1" id="Camada_1" xmlns="http://www.w3.org/2000/svg" xmlns:xlink="http://www.w3.org/1999/xlink"
	  width="166" height="39" viewBox="0 0 166 39" style="enable-background:new 0 0 166 39;" xml:space="preserve">
	<style type="text/css">
		.st0{fill:none;stroke:#D4332B;stroke-width:2;stroke-linecap:round;stroke-linejoin:round;}
	</style>
	<path d="M20.7,23.4H12V8c0-0.5,0.1-0.9,0.4-1.2s0.7-0.5,1.2-0.7c0.9-0.3,2-0.5,3.2-0.6c1.3-0.1,2.5-0.2,3.6-0.2
		c3.9,0,6.7,0.8,8.5,2.4c1.8,1.6,2.8,3.8,2.8,6.5c0,1.9-0.4,3.5-1.2,4.8s-2.1,2.4-3.7,3.2C25.2,23,23.1,23.4,20.7,23.4z M12,21.7h4.7
		v11.3c-0.2,0.1-0.5,0.1-0.9,0.2c-0.4,0.1-0.8,0.1-1.2,0.1c-0.9,0-1.5-0.2-1.9-0.5c-0.4-0.3-0.6-0.9-0.6-1.7V21.7z M16.6,19.7h3.8
		c2.1,0,3.7-0.4,4.9-1.3c1.2-0.9,1.8-2.2,1.8-4c0-1.8-0.6-3.1-1.7-3.9s-2.7-1.3-4.8-1.3c-0.7,0-1.4,0-2.1,0.1
		c-0.7,0.1-1.3,0.1-1.8,0.2V19.7z"/>
	<path d="M79.6,19.1v4.4H75v-4.2c0-1.5-0.4-2.5-1.2-3.2c-0.8-0.7-1.9-1-3.3-1c-1,0-2,0.1-2.8,0.4c-0.8,0.3-1.5,0.6-2.1,0.9v7.1h-4.6
		v-7.2c0-0.7,0.1-1.2,0.4-1.7c0.3-0.4,0.7-0.8,1.4-1.2c0.8-0.5,1.9-1,3.2-1.4c1.3-0.4,2.8-0.6,4.5-0.6c2.9,0,5.1,0.6,6.7,1.9
		C78.8,14.6,79.6,16.6,79.6,19.1z M60.9,21.2h4.6v11.4c-0.2,0.1-0.5,0.1-0.9,0.2c-0.4,0.1-0.8,0.1-1.2,0.1c-0.8,0-1.5-0.2-1.9-0.5
		c-0.4-0.3-0.6-0.9-0.6-1.6V21.2z M75,21.2h4.6v11.4c-0.2,0.1-0.5,0.1-0.9,0.2c-0.4,0.1-0.8,0.1-1.2,0.1c-0.9,0-1.5-0.2-1.9-0.5
		c-0.4-0.3-0.6-0.9-0.6-1.6V21.2z"/>
	<path d="M90.3,22.3h-4.5V6.4c0.2-0.1,0.5-0.1,0.8-0.2C87,6.1,87.4,6,87.9,6c0.8,0,1.4,0.2,1.8,0.5c0.4,0.3,0.6,0.9,0.6,1.6V22.3z
		M85.8,21h4.5v5.6c0,1.1,0.3,1.8,0.9,2.2s1.5,0.7,2.6,0.7c0.5,0,1-0.1,1.6-0.2c0.6-0.1,1.1-0.3,1.5-0.5c0.2,0.2,0.4,0.5,0.6,0.8
		s0.2,0.7,0.2,1c0,0.8-0.4,1.4-1.2,1.9c-0.8,0.5-2,0.7-3.5,0.7c-2.2,0-4-0.5-5.3-1.5c-1.3-1-2-2.6-2-4.8V21z M83.3,16.1v-3.6h12.4
		c0.2,0.2,0.3,0.4,0.5,0.7c0.1,0.3,0.2,0.7,0.2,1c0,0.6-0.2,1.1-0.6,1.4c-0.4,0.3-0.9,0.5-1.6,0.5H83.3z"/>
	<path d="M106.9,23.4h-4.6V12.1c0.2-0.1,0.5-0.1,0.9-0.2c0.4-0.1,0.8-0.1,1.2-0.1c0.8,0,1.4,0.2,1.8,0.5c0.4,0.3,0.6,0.9,0.6,1.7
		V23.4z M102.3,25v-3.7h4.6v3.6c0,1.7,0.5,2.9,1.4,3.7c0.9,0.8,2.2,1.1,3.8,1.1c1.1,0,2-0.1,2.7-0.3c0.7-0.2,1.3-0.4,1.7-0.7v-7.4
		h4.6v7.6c0,0.6-0.1,1.2-0.3,1.6c-0.2,0.4-0.6,0.8-1.2,1.2c-0.7,0.4-1.8,0.8-3,1.2c-1.3,0.4-2.8,0.5-4.4,0.5c-2,0-3.7-0.3-5.2-0.9
		c-1.5-0.6-2.6-1.5-3.3-2.7C102.7,28.4,102.3,26.9,102.3,25z M121,23.4h-4.6V12.1c0.2-0.1,0.5-0.1,0.9-0.2c0.4-0.1,0.8-0.1,1.2-0.1
		c0.9,0,1.5,0.2,1.9,0.5s0.6,0.9,0.6,1.7V23.4z"/>
	<path d="M134.9,11.4c2.8,0,4.9,0.6,6.6,1.8c1.6,1.2,2.4,3.1,2.4,5.6v10.3c0,0.7-0.1,1.2-0.4,1.6c-0.3,0.4-0.7,0.7-1.2,1
		c-0.8,0.4-1.8,0.8-3,1.1c-1.2,0.3-2.6,0.5-4.2,0.5c-2.9,0-5.1-0.6-6.7-1.7c-1.6-1.1-2.4-2.7-2.4-4.9c0-1.9,0.6-3.4,1.9-4.5
		c1.3-1,3.1-1.7,5.4-1.9l6.2-0.6v-1c0-1.3-0.4-2.3-1.3-2.9s-2-0.9-3.5-0.9c-1.2,0-2.3,0.2-3.4,0.5c-1.1,0.3-2.1,0.7-3,1.1
		c-0.3-0.2-0.5-0.5-0.7-0.9c-0.2-0.3-0.3-0.7-0.3-1.1c0-0.9,0.5-1.6,1.5-2.1c0.8-0.4,1.8-0.7,2.9-0.9
		C132.6,11.5,133.7,11.4,134.9,11.4z M135,29.8c1.1,0,2-0.1,2.7-0.3c0.8-0.2,1.3-0.4,1.7-0.6v-5.7l-4.9,0.5c-1.4,0.1-2.4,0.4-3.1,0.9
		c-0.7,0.5-1,1.2-1,2.1c0,1,0.4,1.7,1.2,2.3C132.3,29.5,133.4,29.8,135,29.8z"/>
	<path d="M154.8,23.7l-4.5-0.4V4.1c0.2-0.1,0.5-0.1,0.8-0.2c0.4-0.1,0.8-0.1,1.2-0.1c0.9,0,1.5,0.2,1.9,0.5c0.4,0.3,0.6,0.8,0.6,1.6
		V23.7z M150.2,21l4.5,0.4v11.2c-0.2,0.1-0.5,0.1-0.8,0.2c-0.4,0.1-0.8,0.1-1.2,0.1c-0.8,0-1.4-0.2-1.8-0.5c-0.4-0.3-0.6-0.9-0.6-1.6
		V21z"/>
	<path class="st0" d="M36.5,26.8l1.7-1c0.1-0.1,0.2-0.1,0.3-0.1l3.4,0.6c0.3,0.1,0.5-0.2,0.5-0.4l0-3c0-0.1,0-0.2,0.1-0.2l1.7-3
		c0.1-0.2,0.1-0.3,0-0.5l-2.9-4.1 M51.4,17c-5,2.4-2.3,5.6-1.4,6c1.7,0.9,4.1,0.9,4.1,0.9c0-0.2,0-0.3,0-0.5c0-5-4.1-9.1-9.1-9.1
		c-5,0-9.1,4.1-9.1,9.1s4.1,9.1,9.1,9.1c0.2,0,0.3,0,0.5,0 M49.3,32.5l-2.9-7.6l7.6,2.9l-3.4,1.3L49.3,32.5z"/>
</svg>
