<svg width="375" height="370" viewBox="0 0 375 370" fill="none" xmlns="http://www.w3.org/2000/svg">
<g clip-path="url(#clip0_1225_4309)">
<rect width="375" height="370" rx="4" fill="#D3352A"/>
<path d="M-83.4165 290.966C-83.4165 268.634 -83.4165 257.468 -79.0704 248.938C-75.2474 241.435 -69.1473 235.335 -61.6444 231.512C-53.1147 227.166 -41.9486 227.166 -19.6165 227.166H118.617C140.949 227.166 152.115 227.166 160.645 231.512C168.147 235.335 174.248 241.435 178.071 248.938C182.417 257.468 182.417 268.634 182.417 290.966V376.033C182.417 398.365 182.417 409.531 178.071 418.061C174.248 425.564 168.147 431.664 160.645 435.487C152.115 439.833 140.949 439.833 118.617 439.833H-19.6165C-41.9486 439.833 -53.1147 439.833 -61.6444 435.487C-69.1473 431.664 -75.2474 425.564 -79.0704 418.061C-83.4165 409.531 -83.4165 398.365 -83.4165 376.033V290.966Z" fill="white" fill-opacity="0.05"/>
<path d="M-83.4165 267.041L25.1088 343.009C33.8969 349.16 38.2909 352.236 43.0704 353.428C47.2923 354.48 51.7079 354.48 55.9297 353.428C60.7093 352.236 65.1033 349.16 73.8913 343.009L182.417 267.041M-19.6165 439.833H118.617C140.949 439.833 152.115 439.833 160.645 435.487C168.147 431.664 174.248 425.564 178.071 418.061C182.417 409.531 182.417 398.365 182.417 376.033V290.966C182.417 268.634 182.417 257.468 178.071 248.938C174.248 241.435 168.147 235.335 160.645 231.512C152.115 227.166 140.949 227.166 118.617 227.166H-19.6165C-41.9486 227.166 -53.1147 227.166 -61.6444 231.512C-69.1473 235.335 -75.2474 241.435 -79.0704 248.938C-83.4165 257.468 -83.4165 268.634 -83.4165 290.966V376.033C-83.4165 398.365 -83.4165 409.531 -79.0704 418.061C-75.2474 425.564 -69.1473 431.664 -61.6444 435.487C-53.1147 439.833 -41.9486 439.833 -19.6165 439.833Z" stroke="white" stroke-opacity="0.05" stroke-width="16" stroke-linecap="round" stroke-linejoin="round"/>
</g>
<defs>
<clipPath id="clip0_1225_4309">
<rect width="375" height="370" rx="4" fill="white"/>
</clipPath>
</defs>
</svg>