<svg width="1242" height="370" viewBox="0 0 1242 370" fill="none" xmlns="http://www.w3.org/2000/svg">
<g clip-path="url(#clip0_652_3357)">
<rect width="1242" height="370" fill="#D3352A"/>
<path d="M-139.083 248.632C-139.083 210.898 -139.083 192.032 -131.74 177.619C-125.28 164.942 -114.973 154.635 -102.296 148.175C-87.8833 140.832 -69.0165 140.832 -31.283 140.832H202.284C240.017 140.832 258.884 140.832 273.296 148.175C285.974 154.635 296.281 164.942 302.74 177.619C310.084 192.032 310.084 210.898 310.084 248.632V392.365C310.084 430.099 310.084 448.966 302.74 463.378C296.281 476.055 285.974 486.362 273.296 492.822C258.884 500.165 240.017 500.165 202.284 500.165H-31.283C-69.0165 500.165 -87.8833 500.165 -102.296 492.822C-114.973 486.362 -125.28 476.055 -131.74 463.378C-139.083 448.966 -139.083 430.099 -139.083 392.365V248.632Z" fill="white" fill-opacity="0.05"/>
<path d="M-139.083 208.207L44.2875 336.566C59.1362 346.961 66.5607 352.158 74.6364 354.171C81.7699 355.949 89.2308 355.949 96.3642 354.171C104.44 352.158 111.864 346.961 126.713 336.566L310.084 208.207M-31.283 500.165H202.284C240.017 500.165 258.884 500.165 273.296 492.822C285.974 486.362 296.281 476.055 302.74 463.378C310.084 448.966 310.084 430.099 310.084 392.365V248.632C310.084 210.898 310.084 192.032 302.74 177.619C296.281 164.942 285.974 154.635 273.296 148.175C258.884 140.832 240.017 140.832 202.284 140.832H-31.283C-69.0165 140.832 -87.8833 140.832 -102.296 148.175C-114.973 154.635 -125.28 164.942 -131.74 177.619C-139.083 192.032 -139.083 210.898 -139.083 248.632V392.365C-139.083 430.099 -139.083 448.966 -131.74 463.378C-125.28 476.055 -114.973 486.362 -102.296 492.822C-87.8833 500.165 -69.0165 500.165 -31.283 500.165Z" stroke="white" stroke-opacity="0.05" stroke-width="16" stroke-linecap="round" stroke-linejoin="round"/>
</g>
<defs>
<clipPath id="clip0_652_3357">
<rect width="1242" height="370" fill="white"/>
</clipPath>
</defs>
</svg>